<svg xmlns="http://www.w3.org/2000/svg" width="34.816" height="42" viewBox="0 0 34.816 42">
  <g id="苹果icon" transform="translate(-838.757 -307.466)">
    <g id="组_670" data-name="组 670" transform="translate(838.757 307.466)">
      <path id="路径_355" data-name="路径 355" d="M869.6,335.1a7.9,7.9,0,0,0,3.972,3.169,26.7,26.7,0,0,1-3.085,6.253q-3.253,4.9-6.422,4.9a11.94,11.94,0,0,1-3.507-.8,11.023,11.023,0,0,0-3.761-.8,9,9,0,0,0-3.549.845,9.541,9.541,0,0,1-3.338.8q-3.8,0-7.479-6.465a25.03,25.03,0,0,1-3.676-12.549,14.9,14.9,0,0,1,2.789-9.338,8.733,8.733,0,0,1,7.1-3.633,10.457,10.457,0,0,1,2.07.232,9.161,9.161,0,0,1,2.366.866,13.311,13.311,0,0,0,2.155.993,4.6,4.6,0,0,0,1.31.275,8.673,8.673,0,0,0,1.69-.254,7.8,7.8,0,0,0,2.281-.929,17.256,17.256,0,0,1,2.113-1.014,5.064,5.064,0,0,1,1.817-.338,9.263,9.263,0,0,1,5.324,1.605,11.734,11.734,0,0,1,2.578,2.493,17.594,17.594,0,0,0-2.831,2.958,8.835,8.835,0,0,0-1.648,5.155A9.55,9.55,0,0,0,869.6,335.1Zm-8.493-19.733a7.957,7.957,0,0,1-2.7,1.817,8.658,8.658,0,0,1-1.077.232q-.656.105-1.5.19a11.108,11.108,0,0,1,1.944-6.422,10.053,10.053,0,0,1,6.254-3.718q.084.423.126.592v.464a9.814,9.814,0,0,1-.718,3.423,10.4,10.4,0,0,1-2.324,3.422Zm0,0" transform="translate(-838.757 -307.466)"/>
    </g>
  </g>
</svg>
