<svg xmlns="http://www.w3.org/2000/svg" width="1080" height="58.113" viewBox="0 0 1080 58.113">
  <g id="组_3297" data-name="组 3297" transform="translate(-420 -1204)">
    <g id="组_3278" data-name="组 3278" transform="translate(0 9)">
      <rect id="矩形_2380" data-name="矩形 2380" width="263" height="58" transform="translate(829 1195)" fill="#f8fafc"/>
      <path id="路径_4391" data-name="路径 4391" d="M1078.231,2790.3a25.1,25.1,0,0,0-24.327-18.914H982.863v-20.84h186.613v58.113H1101.92c-9.511,0-20.981-7.8-23.689-18.359" transform="translate(-320.863 -1555.543)" fill="#f8fafc"/>
      <path id="路径_4392" data-name="路径 4392" d="M1074.108,2790.3a25.1,25.1,0,0,1,24.327-18.914h71.041v-20.84H982.863v58.113h67.555c9.511,0,20.981-7.8,23.689-18.359" transform="translate(88.525 -1555.543)" fill="#f8fafc"/>
    </g>
    <rect id="矩形_2451" data-name="矩形 2451" width="386" height="21" transform="translate(420 1204)" fill="#f8fafc"/>
    <rect id="矩形_2452" data-name="矩形 2452" width="384" height="21" transform="translate(1116 1204)" fill="#f8fafc"/>
  </g>
</svg>
