<svg id="组_763" data-name="组 763" xmlns="http://www.w3.org/2000/svg" xmlns:xlink="http://www.w3.org/1999/xlink" width="117.036" height="18.002" viewBox="0 0 117.036 18.002">
  <defs>
    <clipPath id="clip-path">
      <path id="Clip_2" data-name="Clip 2" d="M0,0H25.206V18H0Z" fill="none"/>
    </clipPath>
  </defs>
  <g id="Group_17" data-name="Group 17">
    <g id="Group_3" data-name="Group 3">
      <path id="Clip_2-5" data-name="Clip 2" d="M0,0H25.206V18H0Z" fill="none"/>
      <g id="Group_3-2" data-name="Group 3" clip-path="url(#clip-path)">
        <path id="Fill_1" data-name="Fill 1" d="M22.982,18H2.224A2.243,2.243,0,0,1,0,15.752V2.25A2.244,2.244,0,0,1,2.224,0H22.982a2.244,2.244,0,0,1,2.224,2.25v13.5A2.243,2.243,0,0,1,22.982,18" transform="translate(0 0)" fill="#f8f8f8"/>
      </g>
    </g>
    <g id="Group_6" data-name="Group 6">
      <path id="Clip_5-3" data-name="Clip 5" d="M0,0H25.206V18H0Z" fill="none"/>
      <g id="Group_6-2" data-name="Group 6" clip-path="url(#clip-path)">
        <path id="Fill_4" data-name="Fill 4" d="M23.723,18H1.482A1.493,1.493,0,0,1,0,16.5V1.5A1.493,1.493,0,0,1,1.482,0H23.723a1.493,1.493,0,0,1,1.483,1.5v15A1.494,1.494,0,0,1,23.723,18ZM1.779.75A1.046,1.046,0,0,0,.741,1.8V16.2a1.045,1.045,0,0,0,1.038,1.05H23.427a1.045,1.045,0,0,0,1.038-1.05V1.8A1.045,1.045,0,0,0,23.427.75Z" transform="translate(0 0)" fill="#ededed"/>
      </g>
    </g>
    <path id="Fill_7" data-name="Fill 7" d="M0,5.851H1.575L2.562,0H.985Z" transform="translate(9.349 6.038)" fill="#004a9b"/>
    <path id="Fill_9" data-name="Fill 9" d="M3.177,2.451C2.626,2.18,2.288,2,2.292,1.725c0-.243.285-.5.9-.5a2.869,2.869,0,0,1,1.18.224l.141.067L4.729.245A4.034,4.034,0,0,0,3.316,0C1.758,0,.662.793.652,1.931c-.009.84.783,1.309,1.381,1.589s.82.469.817.725c0,.392-.49.571-.943.571A3.274,3.274,0,0,1,.423,4.51l-.2-.094L0,5.726a4.934,4.934,0,0,0,1.756.312c1.656,0,2.732-.784,2.744-2,.006-.665-.414-1.172-1.323-1.589" transform="translate(11.92 5.982)" fill="#004a9b"/>
    <path id="Fill_11" data-name="Fill 11" d="M1.655,5.847H0L2.341.485A.78.78,0,0,1,3.166,0H4.383L5.66,5.845H4.2c0-.007-.145-.673-.192-.876H1.986l-.331.879ZM3.278,1.579l-.132.348c-.057.149-.078.206-.077.209l-.007.019c-.15.392-.512,1.335-.621,1.616H3.748c-.059-.277-.333-1.544-.364-1.687Z" transform="translate(16.306 6.089)" fill="#004a9b"/>
    <path id="Fill_13" data-name="Fill 13" d="M4.019,0,2.476,3.989l-.164-.811A4.5,4.5,0,0,0,.438.9l.027,0L.321.829C.257.792.193.757.129.724L.134.743,0,.682A.331.331,0,0,1,.176.9L1.54,5.84l1.668,0L5.688,0Z" transform="translate(4.016 6.088)" fill="#004a9b"/>
    <path id="Fill_15" data-name="Fill 15" d="M2.562,0H.02L0,.122A5.23,5.23,0,0,1,3.828,3.183L3.276.494A.66.66,0,0,0,2.562,0" transform="translate(2.499 6.084)" fill="#f9a731"/>
  </g>
  <g id="Group_10" data-name="Group 10" transform="translate(30.61)">
    <g id="Group_3-3" data-name="Group 3">
      <path id="Clip_2-6" data-name="Clip 2" d="M0,0H25.206V18H0Z" fill="none"/>
      <g id="Group_3-4" data-name="Group 3" clip-path="url(#clip-path)">
        <path id="Fill_1-2" data-name="Fill 1" d="M22.982,18H2.224A2.243,2.243,0,0,1,0,15.752V2.25A2.244,2.244,0,0,1,2.224,0H22.982a2.244,2.244,0,0,1,2.224,2.25v13.5A2.243,2.243,0,0,1,22.982,18" transform="translate(0 0)" fill="#33326f"/>
      </g>
    </g>
    <path id="Fill_4-2" data-name="Fill 4" d="M9.753,4.934A4.906,4.906,0,0,1,4.876,9.868,4.906,4.906,0,0,1,0,4.934,4.905,4.905,0,0,1,4.876,0,4.905,4.905,0,0,1,9.753,4.934" transform="translate(10.746 4.067)" fill="#ffa42c"/>
    <path id="Fill_6" data-name="Fill 6" d="M9.753,4.934A4.906,4.906,0,0,1,4.876,9.868,4.906,4.906,0,0,1,0,4.934,4.905,4.905,0,0,1,4.876,0,4.905,4.905,0,0,1,9.753,4.934" transform="translate(4.708 4.067)" fill="#f42a39"/>
    <path id="Fill_8" data-name="Fill 8" d="M0,3.875A4.947,4.947,0,0,0,1.858,7.749,4.947,4.947,0,0,0,3.715,3.875,4.948,4.948,0,0,0,1.858,0,4.948,4.948,0,0,0,0,3.875" transform="translate(10.745 5.126)" fill="#f9582d"/>
  </g>
  <g id="Group_45" data-name="Group 45" transform="translate(61.22)">
    <g id="Group_3-5" data-name="Group 3">
      <path id="Clip_2-7" data-name="Clip 2" d="M0,0H25.206V18H0Z" fill="none"/>
      <g id="Group_3-6" data-name="Group 3" clip-path="url(#clip-path)">
        <path id="Fill_1-3" data-name="Fill 1" d="M22.982,18H2.224A2.243,2.243,0,0,1,0,15.752V2.25A2.244,2.244,0,0,1,2.224,0H22.982a2.244,2.244,0,0,1,2.224,2.25v13.5A2.243,2.243,0,0,1,22.982,18" transform="translate(0 0)" fill="#f8f8f8"/>
      </g>
    </g>
    <g id="Group_6-3" data-name="Group 6">
      <path id="Clip_5-4" data-name="Clip 5" d="M0,0H25.206V18H0Z" fill="none"/>
      <g id="Group_6-4" data-name="Group 6" clip-path="url(#clip-path)">
        <path id="Fill_4-3" data-name="Fill 4" d="M23.723,18H1.482A1.493,1.493,0,0,1,0,16.5V1.5A1.493,1.493,0,0,1,1.482,0H23.723a1.493,1.493,0,0,1,1.483,1.5v15A1.494,1.494,0,0,1,23.723,18ZM1.779.75A1.046,1.046,0,0,0,.741,1.8V16.2a1.045,1.045,0,0,0,1.038,1.05H23.427a1.045,1.045,0,0,0,1.038-1.05V1.8A1.045,1.045,0,0,0,23.427.75Z" transform="translate(0 0)" fill="#ededed"/>
      </g>
    </g>
    <path id="Fill_7-2" data-name="Fill 7" d="M2.91,0H6.618a.729.729,0,0,1,.719.952L5.61,8.451A1.263,1.263,0,0,1,4.453,9.4H.745a.729.729,0,0,1-.719-.951L1.753.952A1.259,1.259,0,0,1,2.91,0" transform="translate(5.175 4.3)" fill="#ed171f"/>
    <path id="Fill_9-2" data-name="Fill 9" d="M2.909,0H7.173c.518,0,.284.427.163.952L5.61,8.451c-.121.524-.084.951-.6.951H.744a.727.727,0,0,1-.718-.951L1.752.952A1.262,1.262,0,0,1,2.909,0" transform="translate(8.575 4.3)" fill="#082f67"/>
    <path id="Fill_11-2" data-name="Fill 11" d="M2.909,0H6.616a.729.729,0,0,1,.719.952l-1.727,7.5A1.261,1.261,0,0,1,4.45,9.4H.744a.727.727,0,0,1-.718-.951L1.751.952A1.261,1.261,0,0,1,2.909,0" transform="translate(12.67 4.3)" fill="#006a65"/>
    <path id="Fill_13-2" data-name="Fill 13" d="M1.275,2.233H.845l.028-.1H0l.088-.289H.177L.635.311.726,0h.439L1.119.157l.006,0,.006,0a.864.864,0,0,1,.215-.1C1.457.014,2.087,0,2.093,0L2,.311H1.848L1.4,1.823h.122l-.094.313H1.3l-.028.1Zm-.55-.745h0l-.1.34h.35l.1-.34H.724ZM.9.89h0l-.12.4.006,0L.8,1.281l.009,0A1.61,1.61,0,0,1,.986,1.2c.056-.013.136-.024.178-.03L1.252.89H.9ZM1.075.311h0L.959.7.973.691l.01,0,.011,0L1.011.675a1.338,1.338,0,0,1,.15-.056,1.046,1.046,0,0,1,.18-.026L1.424.311H1.075Z" transform="translate(14.338 9.526)" fill="#fff"/>
    <path id="Fill_15-2" data-name="Fill 15" d="M0,0H.469L.474.177C.471.206.5.22.55.22H.645L.557.512H.306C.087.528,0,.433.009.326Z" transform="translate(16.38 9.529)" fill="#fff"/>
    <path id="Fill_17" data-name="Fill 17" d="M.706.789H.26L.336.529H.846L.919.292h-.5L.5,0H1.9L1.816.292h-.47L1.272.529h.472l-.078.26h-.51L1.065.9h.207l.05.328a.189.189,0,0,0,.016.067.263.263,0,0,0,.109.017H1.51l-.1.319H1.256c-.025,0-.061,0-.111,0a.3.3,0,0,1-.114-.048.157.157,0,0,1-.084-.111L.9,1.138.666,1.46a.394.394,0,0,1-.342.179H0l.084-.284H.209A.193.193,0,0,0,.3,1.329.135.135,0,0,0,.368,1.27Z" transform="translate(15.736 10.123)" fill="#fff"/>
    <path id="Fill_19" data-name="Fill 19" d="M.248,0H1.43L1.343.286H.87L.8.529H1.28L1.192.823H.708l-.117.4c-.014.043.114.049.161.049l.242-.033-.1.326H.352a.524.524,0,0,1-.124-.018A.13.13,0,0,1,.141,1.48a.128.128,0,0,1-.029-.128L.269.828H0l.089-.3h.27L.431.286H.162Z" transform="translate(11.305 10.201)" fill="#fff"/>
    <path id="Fill_21" data-name="Fill 21" d="M.85.163h.485l-.088.3H.584L.512.524C.482.554.471.542.431.563A.465.465,0,0,1,.212.62H0L.087.334H.151A.224.224,0,0,0,.259.317.264.264,0,0,0,.331.224L.453,0H.935Z" transform="translate(11.499 9.525)" fill="#fff"/>
    <path id="Fill_23" data-name="Fill 23" d="M.752,2.235H.434c-.106,0-.177,0-.226-.007H.182A.183.183,0,0,1,.074,2.2L.065,2.193C.037,2.17,0,2.138,0,2.106a1.106,1.106,0,0,1,.037-.163L.616,0h.412L.969.212.978.2l0,0,0,0a1.188,1.188,0,0,1,.206-.13A2.13,2.13,0,0,1,1.487,0l.668,0L1.928.768a.834.834,0,0,1-.111.255.278.278,0,0,1-.113.1.4.4,0,0,1-.155.053c-.046,0-.117.005-.206.007H.7l-.182.606,0,.011C.5,1.859.493,1.883.5,1.9a.071.071,0,0,0,.061.031L.849,1.9l-.1.333ZM.816.777h0L.774.915H1.36a.378.378,0,0,1,.051,0h.034L1.493.777H.816ZM.952.319.853.65l0,0A.8.8,0,0,1,1.212.49c.031-.006.156-.007.257-.007h.117L1.634.319H.952Z" transform="translate(12.426 9.527)" fill="#fff"/>
    <path id="Fill_25" data-name="Fill 25" d="M.959,0,.921.184A.246.246,0,0,1,.847.322.3.3,0,0,1,.625.4L.4.411l0,.208c0,.06.012.054.022.064A.086.086,0,0,0,.446.7L.518.7.737.685l-.09.3H.4A.783.783,0,0,1,.046.95C0,.923,0,.889,0,.831L.016.019h.4L.411.184h.1A.138.138,0,0,0,.577.173.089.089,0,0,0,.6.13L.644,0Z" transform="translate(13.287 10.767)" fill="#fff"/>
    <path id="Fill_27" data-name="Fill 27" d="M1.679,0c-.014.065-.272,1.266-.273,1.267a.878.878,0,0,1-.232.529.411.411,0,0,1-.273.1.254.254,0,0,1-.285-.245l0-.056s.052-.326.052-.327S.935.168.983.023c0-.008,0-.011,0-.016A4.185,4.185,0,0,1,.362,0C.358.01.345.079.345.079L.069,1.312l-.024.1L0,1.759a.5.5,0,0,0,.059.254c.126.223.485.256.687.256a1.328,1.328,0,0,0,.672-.158,1.015,1.015,0,0,0,.429-.68l.031-.122S2.156.172,2.2.023a.054.054,0,0,1,0-.016A4.173,4.173,0,0,1,1.679,0" transform="translate(6.844 6.695)" fill="#fff"/>
    <path id="Fill_29" data-name="Fill 29" d="M1.232,1.347c-.186,0-.252,0-.47.007L.754,1.339c.02-.083.04-.167.058-.251L.839.973C.879.794.919.586.923.523.927.485.94.389.833.389A.359.359,0,0,0,.692.434C.666.53.613.8.588.918.534,1.174.53,1.2.506,1.33L.49,1.347c-.192,0-.259,0-.48.007L0,1.337c.037-.153.074-.306.109-.458A6.732,6.732,0,0,0,.25.1L.267.085C.483.055.535.049.769,0l.02.023L.753.154C.792.131.83.107.871.085a.733.733,0,0,1,.3-.071.252.252,0,0,1,.26.148c.044.107.015.239-.043.5l-.03.131c-.06.289-.069.341-.1.539Z" transform="translate(8.83 7.606)" fill="#fff"/>
    <path id="Fill_31" data-name="Fill 31" d="M.511,1.062c-.112,0-.185,0-.255,0s-.139,0-.243.008L.006,1.06,0,1.051A1.556,1.556,0,0,1,.058.865,1.28,1.28,0,0,0,.111.676C.143.532.164.431.177.343S.2.184.212.1L.221.094.23.085.485.048C.558.037.632.023.748,0l0,.01,0,.01C.734.11.712.2.691.29S.648.47.629.559C.587.749.571.82.56.871S.548.946.531,1.045l-.009.008Z" transform="translate(10.309 7.891)" fill="#fff"/>
    <path id="Fill_33" data-name="Fill 33" d="M.537,1.353a.877.877,0,0,1-.3-.049C-.08,1.175,0,.808.03.687A.922.922,0,0,1,.28.2.8.8,0,0,1,.841,0a.538.538,0,0,1,.447.165c.054.071.118.2.049.51a1.041,1.041,0,0,1-.2.443A.775.775,0,0,1,.537,1.353ZM.776.3C.624.3.566.5.52.7A.956.956,0,0,0,.491.915c0,.125.076.138.109.138A.178.178,0,0,0,.739.962.983.983,0,0,0,.849.654C.888.483.888.376.849.328A.089.089,0,0,0,.776.3Z" transform="translate(11.158 7.628)" fill="#fff"/>
    <path id="Fill_35" data-name="Fill 35" d="M.464,1.356a.573.573,0,0,1-.232-.048C.021,1.225-.045,1.025.029.7A.914.914,0,0,1,.278.213.731.731,0,0,1,.734,0,.214.214,0,0,1,.812.016.316.316,0,0,1,.975.153c0-.015,0-.029.006-.044V.1L1,.085l.029,0c.2-.03.267-.039.489-.081l.007.019C1.482.2,1.44.375,1.4.554c-.082.36-.115.551-.146.737l0,.024-.021.016-.193,0c-.093,0-.167,0-.3.008L.717,1.32c.006-.026.013-.053.02-.079a.411.411,0,0,1-.246.114ZM.774.311C.624.311.568.5.519.71a.96.96,0,0,0-.03.215c0,.123.078.136.109.136A.25.25,0,0,0,.779.973.471.471,0,0,0,.834.861L.881.67.9.584.907.549A.269.269,0,0,0,.86.347.113.113,0,0,0,.774.311Z" transform="translate(15.826 7.641)" fill="#fff"/>
    <path id="Fill_37" data-name="Fill 37" d="M1.231,1.347c-.187,0-.251,0-.47.007L.753,1.339c.019-.083.04-.167.059-.251L.838.973C.878.794.918.586.922.523.926.485.939.389.832.389A.353.353,0,0,0,.692.434C.665.53.612.8.586.918.533,1.174.529,1.2.5,1.33l-.015.017c-.192,0-.259,0-.479.007L0,1.337c.037-.153.074-.306.109-.458A6.534,6.534,0,0,0,.249.1L.266.085C.482.055.534.049.767,0L.786.023.751.154C.791.131.83.107.869.085a.73.73,0,0,1,.3-.071.256.256,0,0,1,.262.148c.043.107.014.239-.044.5l-.03.131c-.061.289-.071.341-.1.539Z" transform="translate(12.538 7.606)" fill="#fff"/>
    <path id="Fill_39" data-name="Fill 39" d="M.556,2.271h0c-.033,0-.091,0-.188,0L0,2.27C.014,2.21.285,1.08.349.816L.362.761S.5.09.506.084.516.027.522,0c.047.006.138.008.3.008l.328,0h0l.15,0c.315,0,.588.005.725.2a.426.426,0,0,1,.073.261.925.925,0,0,1-.025.2.992.992,0,0,1-.364.585,1.477,1.477,0,0,1-.915.2H.771A.187.187,0,0,0,.726,1.5c0,.009-.062.255-.073.3,0,.007-.089.431-.1.471ZM.985.334l0,.027L.978.4c0,.006-.152.666-.154.673L.818,1.1H.9a.784.784,0,0,0,.356-.057A.5.5,0,0,0,1.511.709a.269.269,0,0,0-.14-.34L1.046.341Z" transform="translate(14.076 6.689)" fill="#fff"/>
    <path id="Fill_41" data-name="Fill 41" d="M.483.306C.606.219.621.1.518.037A.419.419,0,0,0,.1.081C-.021.167-.035.287.07.349A.418.418,0,0,0,.483.306" transform="translate(10.542 7.488)" fill="#fff"/>
    <path id="Fill_43" data-name="Fill 43" d="M1.867.02,1.849,0c-.23.046-.272.055-.483.083L1.35.1l0,.01v0c-.158.368-.152.289-.281.577,0-.013,0-.022,0-.035L1.033.02,1.012,0C.772.046.765.055.543.083L.524.1c0,.008,0,.016,0,.025l0,0A2.914,2.914,0,0,1,.572.466C.585.577.6.689.615.8c.023.184.034.275.06.556C.526,1.608.49,1.7.347,1.923h0l-.1.164a.086.086,0,0,1-.037.033.162.162,0,0,1-.068.01H.084L0,2.414l.289,0a.356.356,0,0,0,.332-.188L.8,1.917h0l.02-.022C.941,1.63,1.867.02,1.867.02" transform="translate(17.03 7.618)" fill="#fff"/>
  </g>
  <g id="Group_10-2" data-name="Group 10" transform="translate(91.83)">
    <g id="Group_3-7" data-name="Group 3">
      <path id="Clip_2-8" data-name="Clip 2" d="M0,0H25.206V18H0Z" fill="none"/>
      <g id="Group_3-8" data-name="Group 3" clip-path="url(#clip-path)">
        <path id="Fill_1-4" data-name="Fill 1" d="M22.982,18H2.224A2.243,2.243,0,0,1,0,15.752V2.25A2.244,2.244,0,0,1,2.224,0H22.982a2.244,2.244,0,0,1,2.224,2.25v13.5A2.243,2.243,0,0,1,22.982,18" transform="translate(0 0)" fill="#2baced"/>
      </g>
    </g>
    <path id="Fill_4-4" data-name="Fill 4" d="M0,0V.7H1.958v.764H0v.763H2.2L3.242,1.114,2.244,0Z" transform="translate(15.102 7.887)" fill="#fff"/>
    <path id="Fill_6-2" data-name="Fill 6" d="M0,1.527H1.224L.612,0Z" transform="translate(5.353 7.742)" fill="#fff"/>
    <path id="Fill_8-2" data-name="Fill 8" d="M15.478,5.324H9.462a.2.2,0,0,1-.2-.207V4.665L9.032,5.2a.175.175,0,0,1-.184.125h-1.3A.192.192,0,0,1,7.362,5.2l-.225-.515v.433a.194.194,0,0,1-.2.207H4.239A.193.193,0,0,1,4.057,5.2l-.244-.6a.182.182,0,0,0-.185-.124h-.51a.2.2,0,0,0-.183.124l-.244.6a.177.177,0,0,1-.185.125H.2a.2.2,0,0,1-.169-.09.206.206,0,0,1-.014-.2L2.139.124A.178.178,0,0,1,2.322,0h2.1a.231.231,0,0,1,.184.124l.243.516V.227a.194.194,0,0,1,.2-.206h2.43a.2.2,0,0,1,.182.122l.367.826a.2.2,0,0,0,.369,0L8.748.144A.178.178,0,0,1,8.931.022h6.628a.23.23,0,0,1,.165.061l.489.558a.22.22,0,0,0,.306,0L17.05.062A.182.182,0,0,1,17.191,0h2.652a.2.2,0,0,1,.187.119.192.192,0,0,1-.044.212l-1.9,2.186a.218.218,0,0,0,0,.269l1.9,2.167a.231.231,0,0,1,.02.241.2.2,0,0,1-.183.109H17.131a.215.215,0,0,1-.144-.061l-.51-.577a.211.211,0,0,0-.152-.063.216.216,0,0,0-.154.063l-.55.6A.19.19,0,0,1,15.478,5.324ZM6.73,2.351a.191.191,0,0,1,.182.126l.857,1.982a.177.177,0,0,0,.183.122h.531a.2.2,0,0,0,.184-.122l.857-1.982a.192.192,0,0,1,.182-.126.2.2,0,0,1,.205.208v1.8a.194.194,0,0,0,.2.207H10.6a.244.244,0,0,0,.225-.187V.969a.194.194,0,0,0-.2-.207H9.5a.2.2,0,0,0-.184.124L8.463,2.93a.184.184,0,0,1-.176.125A.215.215,0,0,1,8.1,2.93L7.158.887A.2.2,0,0,0,6.973.763H5.831a.194.194,0,0,0-.2.207V3.342a.2.2,0,0,1-.207.209.19.19,0,0,1-.181-.125L4.158.866A.179.179,0,0,0,3.975.744H2.895A.2.2,0,0,0,2.71.866L1.263,4.271a.209.209,0,0,0,.015.2.2.2,0,0,0,.168.09h.531a.2.2,0,0,0,.183-.124l.243-.6a.18.18,0,0,1,.186-.124H4.2a.194.194,0,0,1,.183.124l.264.619a.178.178,0,0,0,.186.122H6.321a.192.192,0,0,0,.2-.206V2.559A.2.2,0,0,1,6.73,2.351ZM16.345,3.4a.215.215,0,0,1,.153.062L17.4,4.5a.158.158,0,0,0,.144.063h.612a.205.205,0,0,0,.187-.132.161.161,0,0,0-.025-.178L17.05,2.827a.215.215,0,0,1,0-.268l1.263-1.444a.226.226,0,0,0,.039-.241.193.193,0,0,0-.181-.111H17.6a.215.215,0,0,0-.142.063l-.938,1.011a.217.217,0,0,1-.153.061.214.214,0,0,1-.153-.061l-.9-1.011a.155.155,0,0,0-.143-.063H11.848a.194.194,0,0,0-.2.207V4.355a.194.194,0,0,0,.2.207h3.264a.217.217,0,0,0,.141-.063l.939-1.032A.214.214,0,0,1,16.345,3.4Z" transform="translate(2.581 6.339)" fill="#fff"/>
  </g>
</svg>
