<svg id="组_769" data-name="组 769" xmlns="http://www.w3.org/2000/svg" xmlns:xlink="http://www.w3.org/1999/xlink" width="116.968" height="17.995" viewBox="0 0 116.968 17.995">
  <defs>
    <clipPath id="clip-path">
      <path id="Clip_2" data-name="Clip 2" d="M0,0H25.2V18H0Z" fill="none"/>
    </clipPath>
    <clipPath id="clip-path-3">
      <path id="Clip_8" data-name="Clip 8" d="M0,0H5.949V18H0Z" fill="none"/>
    </clipPath>
  </defs>
  <g id="Group_5" data-name="Group 5" transform="translate(61.181)">
    <g id="Group_3" data-name="Group 3">
      <path id="Clip_2-4" data-name="Clip 2" d="M0,0H25.2V18H0Z" fill="none"/>
      <g id="Group_3-2" data-name="Group 3" clip-path="url(#clip-path)">
        <path id="Fill_1" data-name="Fill 1" d="M22.973,18H2.223A2.243,2.243,0,0,1,0,15.746V2.249A2.243,2.243,0,0,1,2.223,0h20.75A2.243,2.243,0,0,1,25.2,2.249v13.5A2.243,2.243,0,0,1,22.973,18" transform="translate(0 0)" fill="#39b83a"/>
      </g>
    </g>
    <path id="Fill_4" data-name="Fill 4" d="M3.883,0,0,5.824,3.883,3.742Z" transform="translate(8.715 2.549)" fill="#fff"/>
    <path id="Fill_6" data-name="Fill 6" d="M0,0,3.883,5.824,0,3.742Z" transform="translate(12.598 2.549)" fill="#fff"/>
    <path id="Fill_8" data-name="Fill 8" d="M3.709,0,0,2.036l3.709.323Z" transform="translate(8.889 6.957)" fill="#fff"/>
    <path id="Fill_10" data-name="Fill 10" d="M0,0,3.71,2.036,0,2.36Z" transform="translate(12.598 6.957)" fill="#fff"/>
    <path id="Fill_12" data-name="Fill 12" d="M0,0,3.709,2.071V.323Z" transform="translate(8.889 8.993)" fill="#fff"/>
    <path id="Fill_14" data-name="Fill 14" d="M0,2.071,3.71,0,0,.323Z" transform="translate(12.598 8.993)" fill="#fff"/>
    <path id="Fill_16" data-name="Fill 16" d="M0,0C.037.082,3.883,5.862,3.883,5.862V2.118Z" transform="translate(8.716 9.584)" fill="#fff"/>
    <path id="Fill_18" data-name="Fill 18" d="M3.883,0C3.846.082,0,5.862,0,5.862V2.118Z" transform="translate(12.598 9.584)" fill="#fff"/>
  </g>
  <g id="Group_22" data-name="Group 22">
    <g id="Group_3-3" data-name="Group 3">
      <path id="Clip_2-5" data-name="Clip 2" d="M0,0H25.2V18H0Z" fill="none"/>
      <g id="Group_3-4" data-name="Group 3" clip-path="url(#clip-path)">
        <path id="Fill_1-2" data-name="Fill 1" d="M22.973,18H2.223A2.243,2.243,0,0,1,0,15.746V2.249A2.243,2.243,0,0,1,2.223,0h20.75A2.243,2.243,0,0,1,25.2,2.249v13.5A2.243,2.243,0,0,1,22.973,18" transform="translate(0 0)" fill="#ff9522"/>
      </g>
    </g>
    <path id="Fill_4-2" data-name="Fill 4" d="M4.833,11.275H3.9a.035.035,0,0,1-.035-.036V9.6a.035.035,0,0,0-.036-.036H3.171a.035.035,0,0,0-.036.036v1.634a.036.036,0,0,1-.036.036H2.126a.036.036,0,0,1-.036-.036V9.549a.036.036,0,0,0-.035-.036H.145A.035.035,0,0,1,.11,9.477V8.491a.035.035,0,0,1,.035-.035H.96a.362.362,0,0,0,.36-.364V3.162A.362.362,0,0,0,.96,2.8H.035A.035.035,0,0,1,0,2.762V1.7a.035.035,0,0,1,.034-.036l2.025.015a.036.036,0,0,0,.035-.036V.035A.035.035,0,0,1,2.13,0H3.1a.035.035,0,0,1,.035.035V1.646a.035.035,0,0,0,.035.036h.657a.035.035,0,0,0,.035-.036V.035A.035.035,0,0,1,3.9,0h.951a.035.035,0,0,1,.036.035v1.6a.036.036,0,0,0,.031.036A3.452,3.452,0,0,1,6.8,2.335a1.666,1.666,0,0,1,.66,1.572,1.826,1.826,0,0,1-.806,1.273.033.033,0,0,0-.014.032.036.036,0,0,0,.023.029,2.4,2.4,0,0,1,1.045.765A2.5,2.5,0,0,1,7.97,7.589,2.338,2.338,0,0,1,7.231,8.95a1.562,1.562,0,0,1-.5.33,4.316,4.316,0,0,1-1.6.274c-.1,0-.174,0-.221,0a.035.035,0,0,0-.036.036v1.654A.036.036,0,0,1,4.833,11.275ZM3.186,6.086a.036.036,0,0,0-.036.036V8.262a.036.036,0,0,0,.036.036H4.664a1.435,1.435,0,0,0,1.014-.453,1.387,1.387,0,0,0,.206-1.161c0-.006-.226-.589-1.265-.6Zm0-3.211a.036.036,0,0,0-.036.036V4.9a.036.036,0,0,0,.036.036H4.558a.959.959,0,0,0,.868-.832.958.958,0,0,0-.389-1.032,1.783,1.783,0,0,0-.795-.2Z" transform="translate(8.597 3.36)" fill="#fff"/>
  </g>
  <g id="Group_8" data-name="Group 8" transform="translate(30.59)">
    <path id="Fill_1-3" data-name="Fill 1" d="M2.507.934A.942.942,0,0,0,1.869.04h0a1.777,1.777,0,0,0-.819.016L.026.331A.035.035,0,0,0,0,.374L.511,2.3a.035.035,0,0,0,.043.025L1.88,1.965A.959.959,0,0,0,2.507.934" transform="translate(11.34 6.077)" fill="#ff9522"/>
    <path id="Fill_3" data-name="Fill 3" d="M1.412.076.026.452A.035.035,0,0,0,0,.5L.549,2.564a.034.034,0,0,0,.043.025L2.021,2.2h0c.021-.007.712-.237.862-.7a1.39,1.39,0,0,0-.1-1.175S2.428-.189,1.412.076" transform="translate(12.161 9.058)" fill="#ff9522"/>
    <path id="Fill_5" data-name="Fill 5" d="M8.893,18A8.782,8.782,0,0,1,2.6,15.36a9.073,9.073,0,0,1,0-12.724,8.82,8.82,0,0,1,12.576,0,9.072,9.072,0,0,1,0,12.724A8.783,8.783,0,0,1,8.893,18Zm-.616-4.88a.035.035,0,0,1,.034.027l.432,1.633a.035.035,0,0,0,.034.026h.01l.941-.254a.035.035,0,0,0,.021-.017.036.036,0,0,0,0-.027l-.418-1.58a.036.036,0,0,1,.025-.044l.632-.172H10a.037.037,0,0,1,.036.027l.418,1.578a.036.036,0,0,0,.034.027h.009l.906-.245a.037.037,0,0,0,.026-.044L11,12.45a.037.037,0,0,1,0-.028.036.036,0,0,1,.022-.017,4.634,4.634,0,0,0,1.694-.738,1.574,1.574,0,0,0,.4-.449,2.318,2.318,0,0,0,.366-1.509,2.485,2.485,0,0,0-.657-1.458,2.366,2.366,0,0,0-1.206-.467.035.035,0,0,1-.03-.021.033.033,0,0,1,.005-.035,1.841,1.841,0,0,0,.452-1.438,1.648,1.648,0,0,0-1.04-1.348,2.488,2.488,0,0,0-1.181-.2,6.78,6.78,0,0,0-.806.052h0a.035.035,0,0,1-.034-.027L8.579,3.22a.036.036,0,0,0-.034-.026H8.536l-.92.249a.036.036,0,0,0-.025.044L8,5.044a.035.035,0,0,1,0,.027.036.036,0,0,1-.022.017l-.633.171H7.335A.034.034,0,0,1,7.3,5.234L6.888,3.679a.035.035,0,0,0-.034-.027H6.845l-.939.254a.036.036,0,0,0-.022.017.035.035,0,0,0,0,.027l.412,1.555a.037.037,0,0,1,0,.028.034.034,0,0,1-.021.016l-1.958.515a.037.037,0,0,0-.026.044l.271,1.024a.036.036,0,0,0,.034.026H4.6l.894-.242A.356.356,0,0,1,5.585,6.9a.362.362,0,0,1,.347.27l1.261,4.762a.364.364,0,0,1-.254.445l-.787.214a.037.037,0,0,0-.026.044l.252.951a.035.035,0,0,0,.034.027h.009l1.845-.5Z" transform="translate(3.705 0)" fill="#ff9522"/>
    <g id="Group_9" data-name="Group 9">
      <path id="Clip_8-2" data-name="Clip 8" d="M0,0H5.949V18H0Z" fill="none"/>
      <g id="Group_9-2" data-name="Group 9" clip-path="url(#clip-path-3)">
        <path id="Fill_7" data-name="Fill 7" d="M1.482,9A11.261,11.261,0,0,1,5.949,0H2.223A2.243,2.243,0,0,0,0,2.249v13.5A2.243,2.243,0,0,0,2.223,18H5.949A11.261,11.261,0,0,1,1.482,9" transform="translate(0 0)" fill="#ff9522"/>
      </g>
    </g>
    <g id="Group_12" data-name="Group 12" transform="translate(19.248)">
      <path id="Clip_11-2" data-name="Clip 11" d="M0,0H5.949V18H0Z" fill="none"/>
      <g id="Group_12-2" data-name="Group 12" clip-path="url(#clip-path-3)">
        <path id="Fill_10-2" data-name="Fill 10" d="M3.726,0H0A11.261,11.261,0,0,1,4.467,9,11.261,11.261,0,0,1,0,18H3.726a2.243,2.243,0,0,0,2.223-2.249V2.249A2.243,2.243,0,0,0,3.726,0" transform="translate(0 0)" fill="#ff9522"/>
      </g>
    </g>
  </g>
  <g id="Group_23" data-name="Group 23" transform="translate(91.771)">
    <g id="Group_3-5" data-name="Group 3">
      <path id="Clip_2-6" data-name="Clip 2" d="M0,0H25.2V18H0Z" fill="none"/>
      <g id="Group_3-6" data-name="Group 3" clip-path="url(#clip-path)">
        <path id="Fill_1-4" data-name="Fill 1" d="M22.973,18H2.223A2.243,2.243,0,0,1,0,15.746V2.249A2.243,2.243,0,0,1,2.223,0h20.75A2.243,2.243,0,0,1,25.2,2.249v13.5A2.243,2.243,0,0,1,22.973,18" transform="translate(0 0)" fill="#2d2f33"/>
      </g>
    </g>
    <path id="Fill_4-3" data-name="Fill 4" d="M3.883,2.357,0,0,3.883,5.5Z" transform="translate(8.716 9.958)" fill="#fff"/>
    <path id="Fill_6-2" data-name="Fill 6" d="M0,6.547,3.883,4.853V0Z" transform="translate(8.716 2.537)" fill="#fff"/>
    <path id="Fill_8-2" data-name="Fill 8" d="M0,1.695,3.883,0V4.051Z" transform="translate(8.716 7.387)" fill="#fff"/>
    <path id="Fill_10-3" data-name="Fill 10" d="M0,2.357,3.883,0,0,5.5Z" transform="translate(12.598 9.958)" fill="#fff"/>
    <path id="Fill_12-2" data-name="Fill 12" d="M3.883,6.547,0,4.853V0Z" transform="translate(12.598 2.537)" fill="#fff"/>
    <path id="Fill_14-2" data-name="Fill 14" d="M3.883,1.695,0,0V4.051Z" transform="translate(12.598 7.387)" fill="#fff"/>
  </g>
</svg>
