<svg xmlns="http://www.w3.org/2000/svg" xmlns:xlink="http://www.w3.org/1999/xlink" width="21" height="9" viewBox="0 0 21 9">
  <defs>
    <clipPath id="clip-语言切换-三角">
      <rect width="21" height="9"/>
    </clipPath>
  </defs>
  <g id="语言切换-三角" clip-path="url(#clip-语言切换-三角)">
    <rect width="21" height="9" fill="transparent"/>
    <g id="减去_9" data-name="减去 9" transform="translate(-50.001 0.515)" fill="#fff">
      <path d="M 67.97069549560547 7.985310077667236 L 67.96826934814453 7.985310077667236 L 52.99923324584961 7.985310077667236 L 51.79201126098633 7.985310077667236 L 52.64570236206055 7.131730079650879 L 59.42446136474609 0.3538301289081573 C 59.70780181884766 0.07050012052059174 60.08459091186523 -0.08553987741470337 60.48539352416992 -0.08553987741470337 C 60.88620376586914 -0.08553987741470337 61.26299285888672 0.07050012052059174 61.54634094238281 0.3538501262664795 L 68.32253265380859 7.130040168762207 L 69.17609405517578 7.983590126037598 L 67.97069549560547 7.985310077667236 Z" stroke="none"/>
      <path d="M 67.97069549560547 7.485310077667236 L 67.96897888183594 7.483590126037598 L 61.19280242919922 0.7074100971221924 C 61.00388336181641 0.5185001492500305 60.75266265869141 0.4144601225852966 60.48539352416992 0.4144601225852966 C 60.21813201904297 0.4144601225852966 59.96691131591797 0.5185001492500305 59.77799224853516 0.7074100971221924 L 52.99923324584961 7.485310077667236 L 67.96826934814453 7.485310077667236 L 67.97069549560547 7.485310077667236 M 70.37498474121094 8.485310554504395 L 67.97069549560547 8.485310554504395 L 67.96826934814453 8.485310554504395 L 52.99923324584961 8.485310554504395 L 50.58480072021484 8.485310554504395 L 52.29217147827148 6.778160095214844 L 59.0709342956543 0.0002601231390144676 C 59.44870376586914 -0.3774898648262024 59.95104217529297 -0.5855398774147034 60.48539352416992 -0.5855398774147034 C 61.01975250244141 -0.5855398774147034 61.52209091186523 -0.3774898648262024 61.8998908996582 0.0002801231457851827 L 68.67609405517578 6.776480197906494 L 68.6771240234375 6.777510166168213 L 68.67986297607422 6.780270099639893 L 70.37498474121094 8.485310554504395 Z" stroke="none" fill="#f2f6fa"/>
    </g>
  </g>
</svg>
