<svg xmlns="http://www.w3.org/2000/svg" width="44.561" height="54" viewBox="0 0 44.561 54">
  <g id="组_4395" data-name="组 4395" transform="translate(-1273.001 -730.001)">
    <path id="路径_4477" data-name="路径 4477" d="M1403.216,367.522c0,5.725-3.767,11.106-11.2,15.994a58.5,58.5,0,0,1-10.24,5.272,2.279,2.279,0,0,1-1.686,0,58.675,58.675,0,0,1-10.136-5.2c-5.157-3.371-11.3-8.894-11.3-16.062V342.765c0-.013,0-.025,0-.037a2.725,2.725,0,0,1,2.125-2.594l19.021-5.053a4.972,4.972,0,0,1,2.268,0l19.913,5.263a2.635,2.635,0,0,1,1.233,2.422Z" transform="translate(-85.654 395.051)" fill="#dadcde"/>
    <path id="路径_4478" data-name="路径 4478" d="M1397.045,363.011c0,4.932-3.245,9.568-9.646,13.779a50.4,50.4,0,0,1-8.823,4.542,1.964,1.964,0,0,1-1.453,0,50.553,50.553,0,0,1-8.733-4.484c-4.443-2.9-9.736-7.663-9.736-13.837V341.683c0-.011,0-.021,0-.032a2.347,2.347,0,0,1,1.831-2.235l16.387-4.354a4.285,4.285,0,0,1,1.954,0l17.155,4.534a2.27,2.27,0,0,1,1.062,2.086Z" transform="translate(-82.654 399.051)" fill="#fc5d60"/>
    <text id="_2.52_每月" data-name="2.52 / 每月" transform="translate(1282.199 759)" fill="#fff" font-size="23" font-family="Helvetica-Bold, Helvetica" font-weight="700"><tspan x="0" y="0">30</tspan></text>
    <text id="天" transform="translate(1290 772)" fill="#fff" font-size="10" font-family="PingFangSC-Semibold, PingFang SC" font-weight="600"><tspan x="0" y="0">天</tspan></text>
  </g>
</svg>
