<svg xmlns="http://www.w3.org/2000/svg" xmlns:xlink="http://www.w3.org/1999/xlink" width="20" height="20" viewBox="0 0 20 20">
  <defs>
    <linearGradient id="linear-gradient" x1="0.5" x2="0.5" y2="1" gradientUnits="objectBoundingBox">
      <stop offset="0" stop-color="#67b7ff"/>
      <stop offset="1" stop-color="#3a7af4"/>
    </linearGradient>
  </defs>
  <g id="Android_-_Clash" data-name="Android - Clash" transform="translate(-438 -743)">
    <rect id="矩形_985" data-name="矩形 985" width="20" height="20" transform="translate(438 743)" fill="#d8c6c6" opacity="0"/>
    <g id="组_823" data-name="组 823" transform="translate(-3574 -10560.5)">
      <path id="路径_4321" data-name="路径 4321" d="M-1088.081,370.769a128.635,128.635,0,0,0-2.413-17.037.333.333,0,0,0-.518-.2,4.883,4.883,0,0,0-1.8,2.937.077.077,0,0,1-.094.057c-.482-.132-3.184-.809-5.084,0a.078.078,0,0,1-.1-.043,7.683,7.683,0,0,0-2.046-2.958.328.328,0,0,0-.514.135c-.369.938-1.195,4.27-2.308,16.1a2.594,2.594,0,0,1-2.2-.717,1.933,1.933,0,0,1-.338-1.606c.21-.825,1.328-1.312,1.328-1.312.23-.127.243-.281.217-.383a.21.21,0,0,0-.148-.15,2.183,2.183,0,0,0-1.024.109.866.866,0,0,0-.105.04,2.666,2.666,0,0,0-1.518,2.488,2.788,2.788,0,0,0,1.9,2.5,8.594,8.594,0,0,0,2.323.39h0a78.666,78.666,0,0,0,14.169-.008A.328.328,0,0,0-1088.081,370.769Z" transform="translate(5118.757 10950.543)" fill="url(#linear-gradient)"/>
      <circle id="椭圆_342" data-name="椭圆 342" cx="0.848" cy="0.848" r="0.848" transform="translate(4019.213 11310.19)" fill="#fff"/>
      <circle id="椭圆_343" data-name="椭圆 343" cx="0.848" cy="0.848" r="0.848" transform="translate(4025.76 11310.19)" fill="#fff"/>
      <path id="路径_4322" data-name="路径 4322" d="M-1044.044,407.049s.794.257,1.069-.414" transform="translate(5066.228 10906)" fill="none" stroke="#fff" stroke-linecap="round" stroke-miterlimit="10" stroke-width="0.4"/>
      <path id="路径_4323" data-name="路径 4323" d="M-1036.39,407.049s-.794.257-1.069-.414" transform="translate(5060.712 10906)" fill="none" stroke="#fff" stroke-linecap="round" stroke-miterlimit="10" stroke-width="0.4"/>
    </g>
  </g>
</svg>
