<svg xmlns="http://www.w3.org/2000/svg" xmlns:xlink="http://www.w3.org/1999/xlink" width="55.485" height="45.382" viewBox="0 0 55.485 45.382">
  <defs>
    <linearGradient id="linear-gradient" x1="0.5" x2="0.5" y2="1" gradientUnits="objectBoundingBox">
      <stop offset="0" stop-color="#bfc2d5"/>
      <stop offset="1" stop-color="#e4e5ef"/>
    </linearGradient>
  </defs>
  <g id="组_3270" data-name="组 3270" transform="translate(-939 -168)">
    <rect id="矩形_2424" data-name="矩形 2424" width="44" height="32" rx="3" transform="translate(939 168)" fill="url(#linear-gradient)"/>
    <rect id="矩形_2425" data-name="矩形 2425" width="11" height="3" transform="translate(947 179)" fill="#fff"/>
    <rect id="矩形_2426" data-name="矩形 2426" width="11" height="3" transform="translate(947 186)" fill="#fff"/>
    <path id="减去_46" data-name="减去 46" d="M-1551,12a6.007,6.007,0,0,1-6-6,6.007,6.007,0,0,1,6-6,6.007,6.007,0,0,1,6,6A6.006,6.006,0,0,1-1551,12Zm0-8.818A2.822,2.822,0,0,0-1553.818,6,2.822,2.822,0,0,0-1551,8.818,2.821,2.821,0,0,0-1548.182,6,2.822,2.822,0,0,0-1551,3.182Z" transform="translate(2520 178)" fill="#fff"/>
    <g id="组_3269" data-name="组 3269" transform="translate(-16 -4)">
      <g id="联合_121" data-name="联合 121" transform="translate(2545.651 195.952)" fill="url(#linear-gradient)">
        <path d="M -1539.873168945312 19.92975616455078 C -1540.541015625 19.92975616455078 -1541.168823242188 19.6696949005127 -1541.64111328125 19.19749450683594 L -1545.17626953125 15.66225528717041 C -1545.526000976562 15.31255149841309 -1545.75390625 14.87986850738525 -1545.852783203125 14.42189025878906 C -1547.109619140625 15.12459659576416 -1548.535400390625 15.50040531158447 -1549.999877929688 15.50040531158447 C -1552.270385742188 15.50040531158447 -1554.405029296875 14.6162748336792 -1556.010498046875 13.01088523864746 C -1557.615844726562 11.40553569793701 -1558.5 9.270905494689941 -1558.5 7.000205039978027 C -1558.5 4.729005336761475 -1557.61572265625 2.594555139541626 -1556.010131835938 0.9900652170181274 C -1554.405639648438 -0.6154247522354126 -1552.27099609375 -1.49999475479126 -1549.999877929688 -1.49999475479126 C -1547.728149414062 -1.49999475479126 -1545.593627929688 -0.61528480052948 -1543.989379882812 0.9911652207374573 C -1542.384399414062 2.594025135040283 -1541.499633789062 4.728585243225098 -1541.499633789062 7.000205039978027 C -1541.499633789062 8.306510925292969 -1541.789672851562 9.566280364990234 -1542.34765625 10.71205997467041 C -1541.814086914062 10.78722095489502 -1541.321411132812 11.03192138671875 -1540.933715820312 11.41963481903076 L -1537.3984375 14.95483493804932 C -1536.92626953125 15.42703533172607 -1536.666137695312 16.05495452880859 -1536.666137695312 16.7229061126709 C -1536.666137695312 17.39084434509277 -1536.92626953125 18.01876449584961 -1537.3984375 18.49099540710449 L -1538.1064453125 19.1981258392334 C -1538.576416015625 19.66923522949219 -1539.20458984375 19.92975616455078 -1539.873168945312 19.92975616455078 Z M -1549.949462890625 4.000205039978027 C -1550.750732421875 4.000205039978027 -1551.504272460938 4.31241512298584 -1552.071166992188 4.879335403442383 C -1553.240600585938 6.048745155334473 -1553.240478515625 7.952075004577637 -1552.070922851562 9.122195243835449 C -1551.50341796875 9.688465118408203 -1550.74951171875 10.00110530853271 -1549.949462890625 10.00110530853271 C -1549.148803710938 10.00110530853271 -1548.3955078125 9.688875198364258 -1547.82861328125 9.121925354003906 C -1547.263061523438 8.556455612182617 -1546.95166015625 7.802975177764893 -1546.95166015625 7.000315189361572 C -1546.95166015625 6.197785377502441 -1547.263061523438 5.444645404815674 -1547.828369140625 4.87962532043457 C -1548.395141601562 4.312225341796875 -1549.148193359375 4.000205039978027 -1549.949462890625 4.000205039978027 Z" stroke="none"/>
        <path d="M -1539.873168945312 18.42975616455078 C -1539.6171875 18.42975616455078 -1539.361328125 18.33210563659668 -1539.16650390625 18.13680458068848 L -1538.459106445312 17.43029594421387 C -1538.068481445312 17.03969573974609 -1538.068481445312 16.40610504150391 -1538.459106445312 16.01550483703613 L -1541.994384765625 12.48029518127441 C -1542.189697265625 12.28499412536621 -1542.445678710938 12.18735694885254 -1542.70166015625 12.18735694885254 C -1542.877563476562 12.18735694885254 -1543.053588867188 12.23345565795898 -1543.209716796875 12.32563495635986 L -1544.37109375 11.16394519805908 C -1543.480590820312 9.965974807739258 -1542.999633789062 8.520305633544922 -1542.999633789062 7.000205039978027 C -1542.999633789062 5.130005359649658 -1543.727783203125 3.372305154800415 -1545.05078125 2.051095247268677 C -1546.371948242188 0.7280952334403992 -1548.129638671875 5.221252649789676e-06 -1549.999877929688 5.221252649789676e-06 C -1551.869995117188 5.221252649789676e-06 -1553.627685546875 0.7280952334403992 -1554.949829101562 2.051095247268677 C -1556.27197265625 3.372305154800415 -1557 5.130005359649658 -1557 7.000205039978027 C -1557 8.870405197143555 -1556.27197265625 10.62810516357422 -1554.949829101562 11.95020484924316 C -1553.627685546875 13.27230548858643 -1551.869995117188 14.00040531158447 -1549.999877929688 14.00040531158447 C -1548.285278320312 14.00040531158447 -1546.665161132812 13.38835525512695 -1545.389282226562 12.26769542694092 L -1544.270263671875 13.38671493530273 C -1544.496704101562 13.76976490020752 -1544.445068359375 14.27212524414062 -1544.115600585938 14.60160541534424 L -1540.580444335938 18.13680458068848 C -1540.385131835938 18.33210563659668 -1540.129028320312 18.42975616455078 -1539.873168945312 18.42975616455078 M -1549.949462890625 2.500205278396606 C -1548.747924804688 2.500205278396606 -1547.617553710938 2.968195199966431 -1546.767944335938 3.818695306777954 C -1545.012939453125 5.572805404663086 -1545.012939453125 8.427595138549805 -1546.767944335938 10.18259525299072 C -1547.617553710938 11.03219509124756 -1548.747924804688 11.50110530853271 -1549.949462890625 11.50110530853271 C -1551.150024414062 11.50110530853271 -1552.280395507812 11.03219509124756 -1553.1318359375 10.18259525299072 C -1554.885986328125 8.427595138549805 -1554.885986328125 5.572805404663086 -1553.1318359375 3.818695306777954 C -1552.281372070312 2.968195199966431 -1551.15087890625 2.500205278396606 -1549.949462890625 2.500205278396606 M -1539.873168945312 21.42975616455078 C -1540.941650390625 21.42975616455078 -1541.946166992188 21.01368522644043 -1542.70166015625 20.25817489624023 L -1546.236938476562 16.72291564941406 C -1546.345092773438 16.6147518157959 -1546.446044921875 16.50157928466797 -1546.53955078125 16.38415336608887 C -1547.637451171875 16.78856086730957 -1548.807983398438 17.00040435791016 -1549.999877929688 17.00040435791016 C -1552.671020507812 17.00040435791016 -1555.182373046875 15.96025562286377 -1557.071166992188 14.07155513763428 C -1558.959838867188 12.18289566040039 -1560 9.671575546264648 -1560 7.000205039978027 C -1560 4.328135013580322 -1558.959594726562 1.816875219345093 -1557.070434570312 -0.07097478210926056 C -1555.183349609375 -1.959274768829346 -1552.671752929688 -2.99999475479126 -1549.999877929688 -2.99999475479126 C -1547.3271484375 -2.99999475479126 -1544.815673828125 -1.958994746208191 -1542.927978515625 -0.06875477731227875 C -1541.040649414062 1.816035270690918 -1539.999633789062 4.327545166015625 -1539.999633789062 7.000205039978027 C -1539.999633789062 7.996304512023926 -1540.143188476562 8.96949291229248 -1540.423095703125 9.898382186889648 C -1540.228393554688 10.0338716506958 -1540.044311523438 10.18770790100098 -1539.873046875 10.35897541046143 L -1536.337768554688 13.8941650390625 C -1535.582275390625 14.64964485168457 -1535.166137695312 15.65426540374756 -1535.166137695312 16.7229061126709 C -1535.166137695312 17.79153442382812 -1535.582275390625 18.79615592956543 -1536.337890625 19.55169486999512 L -1537.046508789062 20.25944519042969 C -1537.801391601562 21.0141773223877 -1538.805053710938 21.42975616455078 -1539.873168945312 21.42975616455078 Z M -1549.949462890625 5.500205039978027 C -1550.355834960938 5.500205039978027 -1550.722778320312 5.652275085449219 -1551.010498046875 5.939975261688232 C -1551.59521484375 6.524715423583984 -1551.594970703125 7.47652530670166 -1551.010009765625 8.061785697937012 C -1550.722900390625 8.348225593566895 -1550.355224609375 8.501105308532715 -1549.949462890625 8.501105308532715 C -1549.543579101562 8.501105308532715 -1549.177001953125 8.349004745483398 -1548.889282226562 8.061264991760254 C -1548.508544921875 7.68055534362793 -1548.45166015625 7.23312520980835 -1548.45166015625 7.000315189361572 C -1548.45166015625 6.767665386199951 -1548.508422851562 6.320615291595459 -1548.888671875 5.940555095672607 C -1549.177124023438 5.651905059814453 -1549.543334960938 5.500205039978027 -1549.949462890625 5.500205039978027 Z" stroke="none" fill="#fff"/>
      </g>
      <circle id="椭圆_361" data-name="椭圆 361" cx="3.5" cy="3.5" r="3.5" transform="translate(992 199)" fill="#fff"/>
    </g>
  </g>
</svg>
