<svg xmlns="http://www.w3.org/2000/svg" width="10.26" height="16.136" viewBox="0 0 10.26 16.136">
  <path id="路径_318" data-name="路径 318" d="M561.3,111.8v.995H559.31V111.8a4,4,0,0,1-3.984-3.984h1.991a2,2,0,0,0,1.993,1.991v-3.984a3.984,3.984,0,1,1,0-7.968v-1H561.3v1a4,4,0,0,1,3.984,3.984h-1.991a2,2,0,0,0-1.993-1.991v3.984h.4a3.878,3.878,0,0,1,2.29.995,4.062,4.062,0,0,1,1.4,2.989A4.151,4.151,0,0,1,561.3,111.8Zm0-1.993a1.992,1.992,0,1,0,0-3.984Zm-1.991-9.959a1.992,1.992,0,1,0,0,3.984Zm0,0" transform="translate(-555.226 -96.763)" fill="#fff" stroke="#3963ef" stroke-width="0.2"/>
</svg>
