<svg xmlns="http://www.w3.org/2000/svg" width="36" height="36" viewBox="0 0 36 36">
  <g id="Linux" transform="translate(-728 -1024)">
    <rect id="矩形_2248" data-name="矩形 2248" width="36" height="36" transform="translate(728 1024)" fill="#cdd3e3" opacity="0.003"/>
    <path id="linux-2" data-name="linux" d="M107.279,28.539c-.191-.548-1.848-1.235-2.37-2.335s-.095-1.689-.9-2.239a.958.958,0,0,0-.356-.148,8.158,8.158,0,0,0,.253-3,10.048,10.048,0,0,0-2.453-6.408,24.774,24.774,0,0,1-2.084-2.787,7.719,7.719,0,0,1-1.537-3.949,11.313,11.313,0,0,0-.949-5.244A5.117,5.117,0,0,0,90.908.236c-3.207.855-3.286,3.458-3.427,5.38s.766,3.29,0,5.72S85.4,14.67,84.759,15.889c-1.579,3.018-1.913,3.285-2.606,4.84a3.156,3.156,0,0,0-.191,2.73l.033.084c-.273.487-.419.975-.742,1.107-.647.264-2.18-.136-2.7.368s.253,3.553-.094,4.117-.664.548-.664,1.463,1.044.825,5.121,2.15,4.836.959,5.785-.184a1.561,1.561,0,0,0,.315-.614c1.247-.108,2.507-.2,3.241-.208a24.631,24.631,0,0,1,4.968.739,1.543,1.543,0,0,0,.675.864,4.148,4.148,0,0,0,4.032-.732c1.185-1.1,4.173-2.515,4.553-2.883s.982-.644.8-1.191ZM90.21,7.434c-.046-.519-.34-.915-.659-.892s-.543.468-.5.984a1.239,1.239,0,0,0,.269.7l-.141.124a2.508,2.508,0,0,1-.477-1.331c-.087-.988.312-1.763.725-1.795h.029c.4,0,.912.678.995,1.655a3.411,3.411,0,0,1,0,.588c-.078.032-.156.068-.232.1,0-.04,0-.088-.008-.136ZM89.624,7.97Zm-.1.088,0,0Zm-.1.088,0,0s0,0,0,0Zm-.4.339c.025-.02.045-.04.07-.06A.492.492,0,0,1,89.024,8.485Zm.082-.068c.025-.02.05-.044.075-.064C89.156,8.377,89.131,8.4,89.106,8.417Zm.68.942c.1-.084.2-.172.3-.256a1.909,1.909,0,0,1,1.139-.648c.046,0,.091,0,.137,0a4.441,4.441,0,0,1,2.287.784c.083.048.162.092.236.136q-.363.315-.742.611a11.345,11.345,0,0,1-1.4.971,7.141,7.141,0,0,1-1.032-.6,9.942,9.942,0,0,1-1.081-.816.833.833,0,0,1,.156-.184Zm3.977-1.381c.021.012.046.024.066.038Zm.07-1.519c-.4-.02-.775.392-.841.919a.948.948,0,0,0,0,.244c-.153-.06-.307-.108-.456-.151a2.416,2.416,0,0,1,.008-.544,2.333,2.333,0,0,1,.539-1.251,1.173,1.173,0,0,1,.841-.448h.041a.8.8,0,0,1,.572.3,1.9,1.9,0,0,1,.356,1.463,2.329,2.329,0,0,1-.538,1.251c-.012.012-.025.028-.039.04l-.039-.024c-.058-.038-.117-.068-.174-.1a1.2,1.2,0,0,0,.336-.708c.058-.527-.207-.971-.605-.991ZM94,8.106c-.025-.012-.05-.028-.075-.04A.318.318,0,0,1,94,8.106Zm-.572-.3c-.017-.008-.039-.016-.054-.024Zm-.162-.072-.046-.02a.435.435,0,0,0,.046.02Zm-.978-.324s.009,0,.017,0a.031.031,0,0,0-.017,0Zm2.134.932c-.037-.02-.074-.044-.112-.064Q94.363,8.316,94.42,8.346ZM94.7,8.5c-.021-.012-.046-.024-.07-.038C94.656,8.476,94.677,8.488,94.7,8.5Zm-.078-.04a1.06,1.06,0,0,0-.1-.052c.033.016.066.036.1.052Zm-.1-.054c-.033-.02-.066-.04-.1-.06C94.46,8.367,94.491,8.388,94.524,8.408Zm1.355,20.346a9.751,9.751,0,0,1-1.736,1.183,5.254,5.254,0,0,1-3.36.58,6.248,6.248,0,0,1-2.233-.835A4.53,4.53,0,0,0,88.12,29c-.29-.372-2.262-3.062-3.5-4.741a4.941,4.941,0,0,1-.1-1,10.682,10.682,0,0,1,1.057-4.8c.141-.164,1.177-3.01,1.421-3.614.451-1.1,1.148-2.39,1.512-3.146a2.848,2.848,0,0,0,.253-1.356c.41.412,2.333,1.811,3.021,1.811H91.8c.572-.012,2.764-1.735,3.514-2.526.071.288.439.86.676,1.411.688,1.607,1.487,4.613,2.768,6.28a3.283,3.283,0,0,1,.344.66c.5,1.723.4,3.026.091,5.584a2.148,2.148,0,0,0-.5-.1,1.455,1.455,0,0,0-1.185.276s-.05,1.9-.145,3.65c-.075.08-.153.16-.232.24-.447.432-.862.8-1.251,1.123Z" transform="translate(653.407 1025.254)" fill="#000"/>
  </g>
</svg>
