<svg xmlns="http://www.w3.org/2000/svg" width="36" height="36" viewBox="0 0 36 36">
  <g id="安卓" transform="translate(-728 -927.592)">
    <rect id="矩形_2244" data-name="矩形 2244" width="36" height="36" transform="translate(728 927.592)" fill="#cdd3e3" opacity="0"/>
    <path id="安卓-2" data-name="安卓" d="M101.57,26.273a2.15,2.15,0,0,0,2.115,2.179h1.527a2.11,2.11,0,0,0-.08.572v4.355a2.005,2.005,0,1,0,4.009,0V29.023a2.146,2.146,0,0,0-.08-.572h3.723a2.111,2.111,0,0,0-.08.572v4.355a2.005,2.005,0,1,0,4.009,0V29.023a2.061,2.061,0,0,0-.081-.572h1.527a2.15,2.15,0,0,0,2.115-2.179V11.146H101.568V26.273ZM98.228,11.146a2.034,2.034,0,0,0-2,2.062v8.824a2.005,2.005,0,1,0,4.009,0V13.208a2.035,2.035,0,0,0-2-2.063Zm25.388,0a2.033,2.033,0,0,0-2,2.062v8.824a2,2,0,1,0,4.007,0V13.208a2.034,2.034,0,0,0-2-2.063Zm-8.094-8.256L117.1.449a.351.351,0,0,0-.092-.476.329.329,0,0,0-.465.1l-.892,1.378-.376.579-.381.588a10.884,10.884,0,0,0-7.948,0l-.756-1.168L105.3.068a.329.329,0,0,0-.464-.1.351.351,0,0,0-.092.476l1.58,2.441a7.81,7.81,0,0,0-4.754,6.881h18.706a7.807,7.807,0,0,0-4.752-6.88Zm-8.608,4.13a1.031,1.031,0,1,1,1-1.031A1.018,1.018,0,0,1,106.914,7.019Zm8.018,0a1.031,1.031,0,1,1,1-1.031A1.017,1.017,0,0,1,114.932,7.019Z" transform="translate(634.314 928.086)" fill="#000"/>
  </g>
</svg>
