<svg xmlns="http://www.w3.org/2000/svg" width="40" height="40" viewBox="0 0 40 40">
  <g id="_40g_解释icon" data-name="40g 解释icon" transform="translate(-0.337 -0.337)">
    <path id="Shape" d="M20,40A20,20,0,1,1,40,20,20.023,20.023,0,0,1,20,40ZM18.572,27.144V30H21.43V27.144ZM20,12.858c2.119,0,3.335,1.041,3.335,2.857,0,.855-.307,1.4-1.367,2.415l-.024.023-.012.011c-.131.125-.445.426-.535.51-2.082,2-2.82,3.59-2.82,6.088h2.857c0-1.658.454-2.6,1.941-4.025.089-.085.474-.451.576-.546,1.658-1.59,2.246-2.76,2.246-4.472C26.192,12.3,23.7,10,20,10a5.647,5.647,0,0,0-5.241,2.834,7.8,7.8,0,0,0-.952,3.817l2.857.031C16.7,14.11,17.787,12.858,20,12.858Z" transform="translate(0.338 0.338)" fill="#c3ccd9"/>
  </g>
</svg>
