<svg xmlns="http://www.w3.org/2000/svg" width="16" height="18.667" viewBox="0 0 16 18.667">
  <g id="组_598" data-name="组 598" transform="translate(-1095 -826)">
    <g id="组_2611" data-name="组 2611">
      <g id="路径_340" data-name="路径 340" transform="translate(1095 826)" fill="#f9fbfd">
        <path d="M 14.39789772033691 18.16671562194824 L 1.604988098144531 18.16671562194824 C 0.995698094367981 18.16671562194824 0.4999981224536896 17.67781448364258 0.4999981224536896 17.07686424255371 L 0.4999981224536896 1.593024969100952 C 0.4999981224536896 0.9903349280357361 0.9971381425857544 0.5000049471855164 1.608198165893555 0.5000049471855164 L 10.70758819580078 0.5000049471855164 C 10.95484828948975 0.5000049471855164 11.18754768371582 0.5947549343109131 11.36283779144287 0.7668049335479736 L 15.22744846343994 4.558674812316895 C 15.40066814422607 4.72867488861084 15.50003814697266 4.96434497833252 15.50003814697266 5.20519495010376 L 15.50003814697266 17.0796947479248 C 15.50003814697266 17.67907524108887 15.00561809539795 18.16671562194824 14.39789772033691 18.16671562194824 Z" stroke="none"/>
        <path d="M 1.608198165893555 0.9999942779541016 C 1.278517723083496 0.9999942779541016 0.9999980926513672 1.271564483642578 0.9999980926513672 1.593025207519531 L 0.9999980926513672 17.07686424255371 C 0.9999980926513672 17.4021053314209 1.271398544311523 17.66670417785645 1.604988098144531 17.66670417785645 L 14.39789772033691 17.66670417785645 C 14.72991847991943 17.66670417785645 15.00003814697266 17.40337562561035 15.00003814697266 17.0796947479248 L 15.00003814697266 5.205194473266602 C 15.00003814697266 5.096124649047852 14.95639801025391 4.993234634399414 14.87726783752441 4.91556453704834 L 11.01259803771973 1.123634338378906 C 10.93136787414551 1.043905258178711 10.82303810119629 0.9999942779541016 10.70758819580078 0.9999942779541016 L 1.608198165893555 0.9999942779541016 M 1.608198165893555 -5.7220458984375e-06 L 10.70758819580078 -5.7220458984375e-06 C 11.08412742614746 -5.7220458984375e-06 11.44537830352783 0.1472148895263672 11.71307754516602 0.4099655151367188 L 15.57762813568115 4.201774597167969 C 15.84785842895508 4.466995239257812 16.00003814697266 4.82834529876709 16.00003814697266 5.205194473266602 L 16.00003814697266 17.0796947479248 C 16.00003814697266 17.95596504211426 15.28254795074463 18.66670417785645 14.39789772033691 18.66670417785645 L 1.604988098144531 18.66670417785645 C 0.7185878753662109 18.66670417785645 -1.9073486328125e-06 17.95490455627441 -1.9073486328125e-06 17.07686424255371 L -1.9073486328125e-06 1.593025207519531 C -1.9073486328125e-06 0.7170944213867188 0.7239179611206055 -5.7220458984375e-06 1.608198165893555 -5.7220458984375e-06 Z" stroke="none" fill="#3963ef"/>
      </g>
    </g>
    <path id="路径_333" data-name="路径 333" d="M0,0V4.228a.452.452,0,0,0,.452.452H4.679" transform="translate(1105.848 826.419)" fill="none" stroke="#3963ef" stroke-width="1"/>
    <g id="组_2610" data-name="组 2610">
      <g id="组_597" data-name="组 597" transform="translate(0.3 -1)">
        <g id="矩形_869" data-name="矩形 869" transform="translate(1102 835)" fill="#fff" stroke="#3963ef" stroke-width="1">
          <rect width="1" height="6" stroke="none"/>
          <rect x="0.5" y="0.5" height="5" fill="none"/>
        </g>
        <g id="联合_3" data-name="联合 3" transform="translate(4040.558 6781.475) rotate(45)" fill="#fff">
          <path d="M-6283-2124v-4h4v1h-3v3Z" stroke="none"/>
          <path d="M -6282.00048828125 -2123.999267578125 L -6283 -2123.999267578125 L -6283 -2127.99951171875 L -6282.00048828125 -2127.99951171875 L -6278.99951171875 -2127.99951171875 L -6278.99951171875 -2127 L -6282.00048828125 -2127 L -6282.00048828125 -2123.999267578125 Z" stroke="none" fill="#3963ef"/>
        </g>
      </g>
    </g>
  </g>
</svg>
