<svg xmlns="http://www.w3.org/2000/svg" width="36" height="36" viewBox="0 0 36 36">
  <g id="组_4330" data-name="组 4330" transform="translate(-428 -901)">
    <rect id="矩形_2249" data-name="矩形 2249" width="36" height="36" transform="translate(428 901)" fill="#cdd3e3" opacity="0.004"/>
    <path id="联合_145" data-name="联合 145" d="M29.142,31.329H3.239A3.218,3.218,0,0,1,0,28.137V20.009a3.218,3.218,0,0,1,3.239-3.2H5.886V9.553a1.472,1.472,0,0,1,2.944,0v7.26H29.136A3.217,3.217,0,0,1,32.374,20v8.128a3.215,3.215,0,0,1-3.216,3.2Zm-2.894-5.117a1.337,1.337,0,1,0,1.337-1.335A1.338,1.338,0,0,0,26.248,26.212Zm-3.876-1.335a1.335,1.335,0,0,0,.014,2.67H22.4a1.335,1.335,0,0,0-.016-2.67Zm-5.2,0a1.335,1.335,0,0,0,.018,2.67h.015a1.335,1.335,0,0,0-.017-2.67Zm3.074-13.739a1.189,1.189,0,0,1-.591-1.577l.006-.015A5.03,5.03,0,0,0,19.6,5.058,5.148,5.148,0,0,0,15.96,2.376,1.2,1.2,0,0,1,14.983.991V.982A1.215,1.215,0,0,1,16.4.021h.013a7.558,7.558,0,0,1,5.355,3.947,7.381,7.381,0,0,1,.093,6.593v0a1.22,1.22,0,0,1-1.613.575Zm-5.439-.006a1.191,1.191,0,0,1-.579-1.582l0-.006a2.053,2.053,0,0,0-.021-1.829,2.088,2.088,0,0,0-1.484-1.089,1.2,1.2,0,1,1,.416-2.361l.036.006a4.521,4.521,0,0,1,3.194,2.358,4.406,4.406,0,0,1,.058,3.935h0a1.223,1.223,0,0,1-1.1.685A1.2,1.2,0,0,1,14.807,11.132Z" transform="translate(429.811 902.811)" fill="#000"/>
  </g>
</svg>
