<svg xmlns="http://www.w3.org/2000/svg" width="36" height="36" viewBox="0 0 36 36">
  <g id="macOS" transform="translate(-680 -976)">
    <rect id="矩形_2247" data-name="矩形 2247" width="36" height="36" transform="translate(680 976)" fill="#cdd3e3" opacity="0"/>
    <path id="联合_95" data-name="联合 95" d="M-352.591,884.327a1.191,1.191,0,0,1-1.189-1.194,1.19,1.19,0,0,1,1.189-1.189h7.388a1.7,1.7,0,0,1-.025-.282v-4.815h-11.41a2.675,2.675,0,0,1-2.66-2.684v-1.32h31.321v1.32a2.675,2.675,0,0,1-2.66,2.684h-11.416v4.815a1.714,1.714,0,0,1-.025.282h7.353a1.192,1.192,0,0,1,1.19,1.189,1.192,1.192,0,0,1-1.19,1.194ZM-359.3,870.46V856.914a2.626,2.626,0,0,1,2.625-2.626h26.036a2.628,2.628,0,0,1,2.66,2.592v13.58Z" transform="translate(1041.566 125.212)" fill="#000"/>
  </g>
</svg>
