<svg xmlns="http://www.w3.org/2000/svg" width="36" height="36" viewBox="0 0 36 36">
  <g id="组_4329" data-name="组 4329" transform="translate(-411 -909)">
    <rect id="矩形_2845" data-name="矩形 2845" width="36" height="36" transform="translate(411 909)" fill="#bab3b3" opacity="0"/>
    <path id="路径_7366" data-name="路径 7366" d="M24.1,131.484a8.021,8.021,0,0,1,3.825-6.748,8.278,8.278,0,0,0-6.48-3.512c-2.76-.279-5.385,1.625-6.786,1.625s-3.558-1.584-5.848-1.542a8.668,8.668,0,0,0-7.331,4.443c-3.126,5.423-.8,13.457,2.246,17.856,1.488,2.153,3.264,4.571,5.594,4.484,2.244-.09,3.093-1.452,5.806-1.452s3.475,1.452,5.851,1.408c2.414-.045,3.945-2.194,5.423-4.354a19.531,19.531,0,0,0,2.454-5.04,7.827,7.827,0,0,1-4.756-7.169Zm-4.462-13.172a7.808,7.808,0,0,0,1.844-5.659,7.951,7.951,0,0,0-5.22,2.683,7.427,7.427,0,0,0-1.882,5.483,6.575,6.575,0,0,0,5.257-2.507Zm0,0" transform="translate(414.8 796.347)" fill="#000"/>
  </g>
</svg>
