<svg xmlns="http://www.w3.org/2000/svg" width="50" height="50" viewBox="0 0 50 50">
  <g id="组_2962" data-name="组 2962" transform="translate(269 -8548)">
    <rect id="矩形_2447" data-name="矩形 2447" width="50" height="50" transform="translate(-269 8548)" fill="#fff" opacity="0"/>
    <path id="减去_61" data-name="减去 61" d="M29,41H12a11.993,11.993,0,0,1-3.756-.6l12.039-16.57,4.693,6.632h5.2L22.784,20.388,35.975,2.234A11.983,11.983,0,0,1,41,12V29A12,12,0,0,1,29,41ZM4.387,38.277h0A11.97,11.97,0,0,1,0,29V12A12,12,0,0,1,12,0H29a12.025,12.025,0,0,1,2.935.362L20.072,16.69l-4.8-6.544H10.6l7.019,9.92L4.388,38.276Z" transform="translate(-265 8552)" fill="#fd5f1f"/>
  </g>
</svg>
