<svg xmlns="http://www.w3.org/2000/svg" width="58" height="58" viewBox="0 0 58 58">
  <g id="组_2969" data-name="组 2969" transform="translate(-430 -8481)">
    <g id="组_2968" data-name="组 2968">
      <rect id="矩形_2447" data-name="矩形 2447" width="58" height="58" transform="translate(430 8481)" fill="#fff" opacity="0"/>
      <g id="组_2967" data-name="组 2967">
        <rect id="矩形_2457" data-name="矩形 2457" width="48" height="48" rx="12" transform="translate(435 8486)" fill="#85181d"/>
        <path id="联合_118" data-name="联合 118" d="M5.743,35.217A9.221,9.221,0,0,1,12.7,24.529a8.94,8.94,0,0,0,4.924-2.613,7.355,7.355,0,0,0,1.419-2.093,5.8,5.8,0,0,0,.4-2.122,4.963,4.963,0,0,0-.436-1.818,12.642,12.642,0,0,0-2.631-3.037L12.272,9.632c-.138-.119-.308-.111-.661-.087A8.554,8.554,0,0,1,9.656,9.51c.374-.283,1.4-.7,1.833-1.028-1.331-.9-2.849-.574-4.244-.842a5.044,5.044,0,0,1,2.819-1.627,13.562,13.562,0,0,0-.247-1.508,1.042,1.042,0,0,0-.482-.518c-.481-.274-.993-.516-1.547-.8A3.219,3.219,0,0,1,9.45,2.676a6.193,6.193,0,0,1,1.663.162,2.678,2.678,0,0,0,2.564-.594c-.618-.249-1.238-.477-1.839-.747A18.036,18.036,0,0,1,10.118.6c1.558.217,3.064.8,4.657.588L14.817.97,11.1.115a11.323,11.323,0,0,1,6.2.712c.547.267,1.121.482,1.644.791a3.232,3.232,0,0,1,.638.669c.167.181.3.423.506.532a4.924,4.924,0,0,0,2.5.41l.019-.293c.878.275,1.865,1.286,1.856,2.025-1.42,0-2.841-.005-4.262.007a1.44,1.44,0,0,0-.454.171c.138.085.285.234.432.241h.014c.823.031,1.648.018,2.471.038a4.247,4.247,0,0,1,.611.085,6.4,6.4,0,0,1-.622.8c-.294.275-.626.551-1.051.126a.656.656,0,0,0-.424-.08h-.1c-.824-.012-1.638-.038-2.455-.007a15.174,15.174,0,0,0-2.116.216c-.137.023-.327.459-.266.62a2.406,2.406,0,0,0,.656,1.039c1.135.9,2.343,1.7,3.483,2.59a9.015,9.015,0,0,1,2.768,3.118,8.128,8.128,0,0,1,.49,5.273A11.508,11.508,0,0,1,19.1,26.46a18.35,18.35,0,0,1-3.339,1.65c-.994.458-2.017.853-3.014,1.307a4.491,4.491,0,0,0-2.509,4.793,4.651,4.651,0,0,0,3.782,3.733,4.529,4.529,0,0,0,5.1-3.353,4.474,4.474,0,0,0-3.382-5.547l-.47-.121c.7-.311,1.307-.534,1.857-.839q1.454-.8,2.857-1.7c.275-.176.424-.176.658.027a8.968,8.968,0,0,1,3.163,5.844,9.069,9.069,0,0,1-4.85,9.351,8.962,8.962,0,0,1-4.2,1.048A9.23,9.23,0,0,1,5.743,35.217Zm.744-6.708a7.171,7.171,0,0,0-1.355,3.8c-.924.171-1.787.285-2.641.5-.825.211-1.64.524-2.491.8A6.556,6.556,0,0,1,6.487,28.509Zm-.262-.7a8.576,8.576,0,0,1,.138-14.586h.006a8.663,8.663,0,0,1,12.135,3,4.018,4.018,0,0,1,.2,2.755,7.278,7.278,0,0,1-5.765,5,4.588,4.588,0,0,0,1.71-2.643,3.871,3.871,0,0,0-.666-3.074,3.912,3.912,0,0,0-7.044,2.83c.159,1.815,1.538,2.993,4.116,3.44l-.972.516A9.358,9.358,0,0,0,7.065,27.67c-.149.2-.271.3-.423.3A.852.852,0,0,1,6.225,27.807Z" transform="translate(445.582 8488.669)" fill="#fff"/>
      </g>
    </g>
    <path id="路径_4446" data-name="路径 4446" d="M119.678,2.565a.215.215,0,0,0-.1.167.22.22,0,0,0,.074.181.326.326,0,0,0,.45.12l.437-.23-.344-.3c-.193-.159-.353-.059-.509.06Z" transform="translate(339.424 8507.577)" fill="#88171a"/>
  </g>
</svg>
